<mxfile host="Electron" modified="2024-07-11T12:31:28.377Z" agent="Mozilla/5.0 (X11; Linux x86_64) AppleWebKit/537.36 (KHTML, like Gecko) draw.io/24.6.4 Chrome/124.0.6367.207 Electron/30.0.6 Safari/537.36" etag="zR_ihmUSxp4Isy3g5WBU" version="24.6.4" type="device">
  <diagram name="Page-1" id="8YKpOg7OciVcnKoyDfMM">
    <mxGraphModel dx="1114" dy="646" grid="1" gridSize="10" guides="1" tooltips="1" connect="1" arrows="1" fold="1" page="1" pageScale="1" pageWidth="827" pageHeight="1169" math="0" shadow="0">
      <root>
        <mxCell id="0" />
        <mxCell id="1" parent="0" />
        <mxCell id="sGHToENWSSwmSYuh3yBc-45" value="Primary Activities for Cloud-Edge Orchestration (Experiments)" style="rounded=1;whiteSpace=wrap;html=1;fillColor=none;verticalAlign=top;fontStyle=1;labelPosition=center;verticalLabelPosition=bottom;align=center;" vertex="1" parent="1">
          <mxGeometry x="350" y="280" width="390" height="330" as="geometry" />
        </mxCell>
        <mxCell id="sGHToENWSSwmSYuh3yBc-46" style="edgeStyle=orthogonalEdgeStyle;rounded=0;orthogonalLoop=1;jettySize=auto;html=1;" edge="1" parent="1" source="sGHToENWSSwmSYuh3yBc-34" target="sGHToENWSSwmSYuh3yBc-45">
          <mxGeometry relative="1" as="geometry" />
        </mxCell>
        <mxCell id="sGHToENWSSwmSYuh3yBc-34" value="RESTful&lt;div style=&quot;font-size: 14px;&quot;&gt;HTTP&lt;/div&gt;&lt;div style=&quot;font-size: 14px;&quot;&gt;API&lt;/div&gt;" style="ellipse;whiteSpace=wrap;html=1;aspect=fixed;strokeWidth=2;fontStyle=0;fontSize=14;" vertex="1" parent="1">
          <mxGeometry x="230" y="403.44" width="83.12" height="83.12" as="geometry" />
        </mxCell>
        <mxCell id="sGHToENWSSwmSYuh3yBc-47" style="edgeStyle=orthogonalEdgeStyle;rounded=0;orthogonalLoop=1;jettySize=auto;html=1;" edge="1" parent="1" source="sGHToENWSSwmSYuh3yBc-36" target="sGHToENWSSwmSYuh3yBc-34">
          <mxGeometry relative="1" as="geometry" />
        </mxCell>
        <mxCell id="sGHToENWSSwmSYuh3yBc-36" value="&lt;div&gt;User&lt;/div&gt;Algorithm&lt;div&gt;Strategy&lt;/div&gt;&lt;div&gt;Policy&lt;/div&gt;" style="verticalLabelPosition=bottom;html=1;verticalAlign=top;align=center;strokeColor=none;fillColor=#00BEF2;shape=mxgraph.azure.user;" vertex="1" parent="1">
          <mxGeometry x="100" y="415" width="57" height="60" as="geometry" />
        </mxCell>
        <mxCell id="sGHToENWSSwmSYuh3yBc-59" value="" style="shape=image;verticalLabelPosition=bottom;labelBackgroundColor=default;verticalAlign=top;aspect=fixed;imageAspect=0;image=data:image/svg+xml,PHN2ZyB4bWxuczp4bGluaz0iaHR0cDovL3d3dy53My5vcmcvMTk5OS94bGluayIgeG1sbnM9Imh0dHA6Ly93d3cudzMub3JnLzIwMDAvc3ZnIiB2aWV3Qm94PSIwIDAgMTAwMCA5MzIiIGhlaWdodD0iOTMyIiB3aWR0aD0iMTAwMCIgdmVyc2lvbj0iMS4xIj48ZyB0cmFuc2Zvcm09Im1hdHJpeCgxLDAsMCwxLC0wLjI5NzAzNjIyNTg5NTUxMDYsMC4zNzczMjc5MzUyMjI2MzgyKSI+PHN2ZyB4bWxuczp4bGluaz0iaHR0cDovL3d3dy53My5vcmcvMTk5OS94bGluayIgeG1sbnM9Imh0dHA6Ly93d3cudzMub3JnLzIwMDAvc3ZnIiB3aWR0aD0iMTAwMCIgaGVpZ2h0PSI5MzIiIHByZXNlcnZlQXNwZWN0UmF0aW89InhNaWRZTWlkIG1lZXQiIGRhdGEtYmFja2dyb3VuZC1jb2xvcj0iI2ZmZmZmZiIgdmlld0JveD0iMCAwIDI2NSAyNDciPjxnIHRyYW5zZm9ybT0ibWF0cml4KDEsMCwwLDEsMC4wNzg3MTQ1OTk4NjIzMDg4OSwtMC4wOTk5OTk5OTk5OTk5OTQzMikiIGlkPSJ0aWdodC1ib3VuZHMiPjxzdmcgd2lkdGg9IjI2NC44NDI1NzA3MjU4MDY2NCIgaGVpZ2h0PSIyNDcuMiIgdmlld0JveD0iMCAwIDI2NC44NDI1NzA3MjU4MDY2NCAyNDcuMiI+PGc+PHN2ZyB3aWR0aD0iMjY0Ljg0MjU3MDcyNTgwNjY0IiBoZWlnaHQ9IjI0Ny4yIiB2aWV3Qm94PSIwIDAgMzk1LjUyIDM2OS4xNzIzMTE0MzAzNDI0NiI+PGcgdHJhbnNmb3JtPSJtYXRyaXgoMSwwLDAsMSwwLDI1Ny4zMjY3MjUwNzYyNzc5KSI+PHN2ZyB3aWR0aD0iMzk1LjUyIiBoZWlnaHQ9IjExMS44NDU1ODYzNTQwNjQ1NSIgdmlld0JveD0iMCAwIDM5NS41MiAxMTEuODQ1NTg2MzU0MDY0NTUiPjxnIGlkPSJ0ZXh0YmxvY2t0cmFuc2Zvcm0iPjxzdmcgaWQ9InRleHRibG9jayIgd2lkdGg9IjM5NS41MiIgaGVpZ2h0PSIxMTEuODQ1NTg2MzU0MDY0NTUiIHZpZXdCb3g9IjAgMCAzOTUuNTIgMTExLjg0NTU4NjM1NDA2NDU1Ij48Zz48cmVjdCBkYXRhLWZpbGwtcGFsZXR0ZS1jb2xvcj0idGVydGlhcnkiIGZpbGw9IiMwMDgwZmYiIHk9IjkxLjk5Njk3NDM5NDk2ODg2IiBoZWlnaHQ9IjUuNjc4MDE5MzMyNzI1NjgyIiB3aWR0aD0iNzUuNTQ0MzIwMDAwMDAwMDEiLz48cmVjdCBkYXRhLWZpbGwtcGFsZXR0ZS1jb2xvcj0idGVydGlhcnkiIGZpbGw9IiMwMDgwZmYiIHg9IjMxOS45NzU2Nzk5OTk5OTk5NSIgeT0iOTEuOTk2OTc0Mzk0OTY4ODYiIGhlaWdodD0iNS42NzgwMTkzMzI3MjU2ODIiIHdpZHRoPSI3NS41NDQzMjAwMDAwMDAwMSIvPjwvZz48Zz48c3ZnIHdpZHRoPSIzOTUuNTIiIGhlaWdodD0iNjIuOTYyNDU2ODEzODE5NTgiIHZpZXdCb3g9IjAgMCAzOTUuNTIgNjIuOTYyNDU2ODEzODE5NTgiPjxnIHRyYW5zZm9ybT0ibWF0cml4KDEsMCwwLDEsMCwwKSI+PHN2ZyBkYXRhLXBhbGV0dGUtY29sb3I9IiMwMDgwZmYiIGhlaWdodD0iNjIuOTYyNDU2ODEzODE5NTgiIHZpZXdCb3g9IjIuODA5OTk5OTQyNzc5NTQxIC0zMi40MDAwMDE1MjU4Nzg5MDYgMjAzLjUgMzIuNDAwMDAxNTI1ODc4OTA2IiB3aWR0aD0iMzk1LjUyIj48cGF0aCBpZD0idGV4dC0wIiBkYXRhLWZpbGwtcGFsZXR0ZS1jb2xvcj0icHJpbWFyeSIgY2xhc3M9IndvcmRtYXJrLXRleHQtMCIgZmlsbD0iIzAwODBmZiIgdHJhbnNmb3JtPSJtYXRyaXgoMSwwLDAsMSwwLDApIiBvcGFjaXR5PSIxIiBkPSJNMTMuNCAwTDIuODEgMCAyLjgxLTMyLjQgMTMuNC0zMi40IDEzLjQgMFpNMjIuOTUtMjUuOTNMMTUuMTEtMjUuOTMgMTUuMTEtMzIuNCAyNy4yMi0zMi40IDMzLjY5LTI1LjkzIDMzLjY5LTE0LjgyIDI3LjIyLTguMzMgMTUuMTEtOC4zMyAxNS4xMS0xNC44MiAyMi45NS0xNC44MiAyMi45NS0yNS45M1pNNjkuNDgtMzIuNEw2OS40OC02LjQ3IDYzLjAxIDAgNTQuNjkgMCA1NC42OS02LjQ3IDU4LjY5LTYuNDcgNTguNjktMzIuNCA2OS40OC0zMi40Wk00OS0zMi40TDQ5LTYuNDcgNTIuOTgtNi40NyA1Mi45OCAwIDQ0LjY4IDAgMzguMTgtNi40NyAzOC4xOC0zMi40IDQ5LTMyLjRaTTg1Ljc0IDBMNzQuOTUgMCA3NC45NS0zMi40IDg1Ljc0LTMyLjQgODUuNzQgMFpNMTAyLjU4IDBMODcuNDUgMCA4Ny40NS02LjQ3IDkyLjc5LTYuNDcgOTIuNzktMTAuNTcgMTAyLjU4LTEwLjU3IDEwMi41OCAwWk0xMTYuMTgtMzIuNEwxMTYuMTggMCAxMTEuODggMCAxMDUuMzktNi40NyAxMDUuMzktMjUuOTMgMTExLjg4LTMyLjQgMTE2LjE4LTMyLjRaTTEyNS4wNy0yNS45M0wxMTcuODktMjUuOTMgMTE3Ljg5LTMyLjQgMTI5LjM5LTMyLjQgMTM1Ljg2LTI1LjkzIDEzNS44Ni0xOS40MSAxMjUuMDctMTkuNDEgMTI1LjA3LTI1LjkzWk0xMjkuMzkgMEwxMTcuODkgMCAxMTcuODktNi40NyAxMjUuMDctNi40NyAxMjUuMDctMTEuMjEgMTM1Ljg2LTExLjIxIDEzNS44Ni02LjQ3IDEyOS4zOSAwWk0xNjIuMTUtMTMuMzFMMTUxLjgyLTEzLjMxIDE1MS44MiAwIDE0MS4wMyAwIDE0MS4wMy0zMi40IDE1MS44Mi0zMi40IDE1MS44Mi0xOS41NiAxNjIuMTUtMTkuNTYgMTYyLjE1LTEzLjMxWk0xNjAuMjQtMjYuMTJMMTUzLjUzLTI2LjEyIDE1My41My0zMi40IDE3MC40LTMyLjQgMTcwLjQtMjMuMDIgMTYwLjI0LTIzLjAyIDE2MC4yNC0yNi4xMlpNMTcwLjQgMEwxNTMuNTMgMCAxNTMuNTMtNi40NyAxNTkuNjEtNi40NyAxNTkuNjEtOS43MiAxNzAuNC05LjcyIDE3MC40IDBaTTE4NS42My0yNS44M0wxODUuNjMtNi41OSAxODkuNjgtNi41OSAxODkuNjggMCAxODEuMzggMCAxNzQuODItNi40NyAxNzQuODItMjUuOTMgMTgxLjM4LTMyLjQgMTg5LjY4LTMyLjQgMTg5LjY4LTI1LjgzIDE4NS42My0yNS44M1pNMTk1LjUyLTYuNTlMMTk1LjUyLTI1LjgzIDE5MS4zOS0yNS44MyAxOTEuMzktMzIuNCAxOTkuNzctMzIuNCAyMDYuMzEtMjUuOTMgMjA2LjMxLTYuNDcgMTk5Ljc3IDAgMTkxLjM5IDAgMTkxLjM5LTYuNTkgMTk1LjUyLTYuNTlaIi8+PC9zdmc+PC9nPjwvc3ZnPjwvZz48ZyB0cmFuc2Zvcm09Im1hdHJpeCgxLDAsMCwxLDc1LjU0NDMyMDAwMDAwMDAxLDc3LjgyNjM4MTc2ODU5ODg1KSI+PHN2ZyB3aWR0aD0iMjQ0LjQzMTM1OTk5OTk5OTk2IiBoZWlnaHQ9IjM0LjAxOTIwNDU4NTQ2NTciIHZpZXdCb3g9IjAgMCAyNDQuNDMxMzU5OTk5OTk5OTYgMzQuMDE5MjA0NTg1NDY1NyI+PGcgdHJhbnNmb3JtPSJtYXRyaXgoMSwwLDAsMSw4LDApIj48c3ZnIGRhdGEtcGFsZXR0ZS1jb2xvcj0iIzAwMjNmZiIgaGVpZ2h0PSIzNC4wMTkyMDQ1ODU0NjU3IiB2aWV3Qm94PSIyLjQwMDAwMDA5NTM2NzQzMTYgLTMzLjY1MDAwMTUyNTg3ODkwNiAyOTMuMDcwMDA3MzI0MjE4NzUgNDMuNjUwMDAxNTI1ODc4OTA2IiB3aWR0aD0iMjI4LjQzMTM1OTk5OTk5OTk2Ij48cGF0aCBpZD0idGV4dC0xIiBkYXRhLWZpbGwtcGFsZXR0ZS1jb2xvcj0ic2Vjb25kYXJ5IiBjbGFzcz0ic2xvZ2FuLXRleHQtMSIgZmlsbD0iIzAwMjNmZiIgdHJhbnNmb3JtPSJtYXRyaXgoMSwwLDAsMSwwLDApIiBvcGFjaXR5PSIxIiBkPSJNMTEuMDUtMzAuMkwyLjQtMzAuMiAyLjQtMzIuNzUgMjIuNS0zMi43NSAyMi41LTMwLjIgMTMuOC0zMC4yIDEzLjggMCAxMS4wNSAwIDExLjA1LTMwLjJaTTI4LjM1LTExLjg1UTI4LjM1LTE3LjYgMzAuNzItMjAuODMgMzMuMS0yNC4wNSAzNy42NS0yNC4wNSA0Mi4yLTI0LjA1IDQ0LjQyLTIxLjA1IDQ2LjY1LTE4LjA1IDQ2LjY1LTEzLjA1TDQ2LjY1LTEzLjA1IDQ2LjUtMTAuNTUgMzEuMi0xMC41NVEzMS40NS02LjggMzMuMi00LjQ4IDM0Ljk1LTIuMTUgMzguMDItMi4xNSA0MS4xLTIuMTUgNDUuMjUtMy42TDQ1LjI1LTMuNiA0Ni0xLjFRNDEuOTUgMC40NSAzOC40IDAuNDVMMzguNCAwLjQ1UTMzLjUgMC40NSAzMC45Mi0yLjgzIDI4LjM1LTYuMSAyOC4zNS0xMS44NVpNMzcuODUtMjEuNUwzNy44NS0yMS41UTMxLjU1LTIxLjUgMzEuMi0xMy4wNUwzMS4yLTEzLjA1IDQzLjgtMTMuMDVRNDMuOC0yMS41IDM3Ljg1LTIxLjVaTTUxLjc1LTIzLjc1TDU0LjI1LTIzLjc1IDU0LjQtMjIuMjVRNTYuOS0yNC4wNSA1OC4yNS0yNC4wNUw1OC4yNS0yNC4wNVE2MS41NS0yNC4wNSA2Mi44LTIxLjlMNjIuOC0yMS45UTY1LjU5LTI0LjA1IDY3LjctMjQuMDVMNjcuNy0yNC4wNVE3MC45NS0yNC4wNSA3Mi4xNS0yMi4wNSA3My4zNC0yMC4wNSA3My4zNC0xNS45TDczLjM0LTE1LjkgNzMuMzQgMCA3MC43IDAgNzAuNy0xNS45UTcwLjctMTguNzUgNzAuMDktMjAuMTMgNjkuNS0yMS41IDY3LjgtMjEuNSA2Ni4wOS0yMS41IDYzLjYtMTkuOUw2My42LTE5LjlRNjMuOS0xOC4yIDYzLjktMTUuOUw2My45LTE1LjkgNjMuOS03LjYgNjEuMjUtNy42IDYxLjI1LTE1LjlRNjEuMjUtMTguNzUgNjAuNjUtMjAuMUw2MC42NS0yMC4xUTYwLTIxLjUgNTguMy0yMS41IDU2LjYtMjEuNSA1NC40LTE5LjlMNTQuNC0xOS45IDU0LjQgMCA1MS43NSAwIDUxLjc1LTIzLjc1Wk04MS40OSA5LjZMNzguODQgOS42IDc4Ljg0LTE5LjQ1IDc4LjM5LTIzLjggODAuODktMjQuMSA4MS4zNC0yMS40UTg0Ljk5LTI0LjA1IDg4LjI5LTI0LjA1TDg4LjI5LTI0LjA1UTkyLjc0LTI0LjA1IDk1LjE5LTIwLjggOTcuNjQtMTcuNTUgOTcuNjQtMTEuODUgOTcuNjQtNi4xNSA5NC45NC0yLjg1IDkyLjI0IDAuNDUgODcuNDQgMC40NUw4Ny40NCAwLjQ1UTg0LjY0IDAuNDUgODEuNDktMC45TDgxLjQ5LTAuOSA4MS40OSA5LjZaTTk0Ljc5LTExLjc4UTk0Ljc5LTE2LjIgOTMuMDktMTguODIgOTEuMzktMjEuNDUgODguMjItMjEuNDUgODUuMDQtMjEuNDUgODEuNDktMTguNkw4MS40OS0xOC42IDgxLjQ5LTMuNlE4Mi41NC0zLjEgODQuMzctMi42MyA4Ni4xOS0yLjE1IDg3LjM0LTIuMTVMODcuMzQtMi4xNVE5MC44OS0yLjE1IDkyLjg0LTQuNzUgOTQuNzktNy4zNSA5NC43OS0xMS43OFpNMTIxLjI0IDBMMTE4LjY5IDAgMTE4LjU5LTIuMDVRMTEzLjc5IDAuNDUgMTEwLjU5IDAuNDUgMTA3LjM5IDAuNDUgMTA1LjU0LTEuNzUgMTAzLjY5LTMuOTUgMTAzLjY5LTcuNzVMMTAzLjY5LTcuNzUgMTAzLjY5LTIzLjc1IDEwNi4zNC0yMy43NSAxMDYuMzQtNy43NVExMDYuMzQtNS4zIDEwNy41Mi0zLjczIDEwOC42OS0yLjE1IDExMS4wOS0yLjE1IDExMy40OS0yLjE1IDExOC41OS00LjY1TDExOC41OS00LjY1IDExOC41OS0yMy43NSAxMjEuMjQtMjMuNzUgMTIxLjI0IDBaTTEyOC44OS0xLjE1TDEyOC44OS0xLjE1IDEyOS41NC0zLjc1UTEzNC40OS0yLjEgMTM3LjE5LTIuMSAxMzkuODktMi4xIDE0MS4zNi0zLjI4IDE0Mi44NC00LjQ1IDE0Mi44NC02LjQgMTQyLjg0LTguMzUgMTQxLjY2LTkuMjggMTQwLjQ5LTEwLjIgMTM2Ljc5LTExLjA1IDEzMy4wOS0xMS45IDEzMS4yNC0xMy41TDEzMS4yNC0xMy41UTEyOS4zOS0xNSAxMjkuMzktMTggMTI5LjM5LTIxIDEzMS42Ni0yMi41OCAxMzMuOTQtMjQuMTUgMTM3LjU0LTI0LjE1IDE0MS4xNC0yNC4xNSAxNDUuMzQtMjIuNTVMMTQ1LjM0LTIyLjU1IDE0NC42NC0yMC4yUTE0MC4zOS0yMS42IDEzNy43OS0yMS42IDEzNS4xOS0yMS42IDEzMy42OS0yMC43TDEzMy42OS0yMC43UTEzMi4xOS0xOS43IDEzMi4xOS0xOCAxMzIuMTktMTYuMyAxMzMuNTEtMTUuMzUgMTM0Ljg0LTE0LjQgMTM4LjY0LTEzLjQ1IDE0Mi40NC0xMi41IDE0NC4wNC0xMS4wMyAxNDUuNjQtOS41NSAxNDUuNjQtNi40IDE0NS42NC0zLjI1IDE0My40OS0xLjRMMTQzLjQ5LTEuNFExNDEuMzkgMC40NSAxMzcuNDkgMC40NSAxMzMuNTkgMC40NSAxMjguODktMS4xNVpNMTgzLjk4LTIuNUwxODMuOTgtMjEuMjUgMTc5LjIzLTIxLjI1IDE3OS4yMy0yMy43NSAxODMuOTgtMjMuNzVRMTgzLjk4LTMzLjY1IDE5MS4zMy0zMy42NUwxOTEuMzMtMzMuNjVRMTkzLjczLTMzLjY1IDE5Ni42My0zMi44TDE5Ni42My0zMi44IDE5Ni4wMy0zMC4yNVExOTMuMjMtMzEuMDUgMTkxLjQzLTMxLjA1TDE5MS40My0zMS4wNVExODguODMtMzEuMDUgMTg3LjczLTI5LjMgMTg2LjYzLTI3LjU1IDE4Ni42My0yMy43NUwxODYuNjMtMjMuNzUgMTk1LjY4LTIzLjc1IDE5NS42OC0yMS4yNSAxODYuNjMtMjEuMjUgMTg2LjYzLTIuNSAxOTUuNzgtMi41IDE5NS43OCAwIDE3OS4wMyAwIDE3OS4wMy0yLjUgMTgzLjk4LTIuNVpNMjIxLjIzIDBMMjE4LjY4IDAgMjE4LjU4LTIuMDVRMjEzLjc4IDAuNDUgMjEwLjU4IDAuNDUgMjA3LjM4IDAuNDUgMjA1LjUzLTEuNzUgMjAzLjY4LTMuOTUgMjAzLjY4LTcuNzVMMjAzLjY4LTcuNzUgMjAzLjY4LTIzLjc1IDIwNi4zMy0yMy43NSAyMDYuMzMtNy43NVEyMDYuMzMtNS4zIDIwNy41MS0zLjczIDIwOC42OC0yLjE1IDIxMS4wOC0yLjE1IDIxMy40OC0yLjE1IDIxOC41OC00LjY1TDIxOC41OC00LjY1IDIxOC41OC0yMy43NSAyMjEuMjMtMjMuNzUgMjIxLjIzIDBaTTI0Ni4zOC0yMy43NUwyNDYuMzgtNS43NSAyNDYuNTMgMS4xNVEyNDYuNTMgNS42IDI0My44NSA3LjggMjQxLjE4IDEwIDIzNy4yMyAxMCAyMzMuMjggMTAgMjI4LjIzIDhMMjI4LjIzIDggMjI5LjEzIDUuNVEyMzQuMDggNy40IDIzNyA3LjQgMjM5LjkzIDcuNCAyNDEuOSA1Ljg4IDI0My44OCA0LjM1IDI0My44OCAxLjJMMjQzLjg4IDEuMlEyNDMuODggMC44IDI0My44LTAuNTggMjQzLjczLTEuOTUgMjQzLjczLTIuNkwyNDMuNzMtMi42UTI0MC4wOC0wLjA1IDIzNi45My0wLjA1TDIzNi45My0wLjA1UTIzMi40My0wLjA1IDIzMC0zLjEzIDIyNy41OC02LjIgMjI3LjU4LTExLjg4IDIyNy41OC0xNy41NSAyMzAuMjgtMjAuOCAyMzIuOTgtMjQuMDUgMjM3Ljc4LTI0LjA1TDIzNy43OC0yNC4wNVEyNDAuNDMtMjQuMDUgMjQzLjczLTIyLjNMMjQzLjczLTIyLjMgMjQzLjgzLTIzLjc1IDI0Ni4zOC0yMy43NVpNMjMwLjQzLTExLjkzUTIzMC40My03LjU1IDIzMi4xMy01LjEgMjMzLjgzLTIuNjUgMjM3LjA4LTIuNjUgMjQwLjMzLTIuNjUgMjQzLjczLTUuNUwyNDMuNzMtNS41IDI0My43My0xOS41UTI0MC42My0yMS40NSAyMzcuODgtMjEuNDVMMjM3Ljg4LTIxLjQ1UTIzNC4zMy0yMS40NSAyMzIuMzgtMTguODggMjMwLjQzLTE2LjMgMjMwLjQzLTExLjkzWk0yNjEuOTMtMjEuMjVMMjU2LjEzLTIxLjI1IDI1Ni4xMy0yMy43NSAyNjQuNTgtMjMuNzUgMjY0LjU4LTIuNSAyNzAuMzgtMi41IDI3MC4zOCAwIDI1NS43MyAwIDI1NS43My0yLjUgMjYxLjkzLTIuNSAyNjEuOTMtMjEuMjVaTTI2My4wMy0yOC41NVEyNjIuMTMtMjguNTUgMjYxLjUtMjkuMTggMjYwLjg4LTI5LjggMjYwLjg4LTMwLjc4IDI2MC44OC0zMS43NSAyNjEuNS0zMi4zMyAyNjIuMTMtMzIuOSAyNjMuMDMtMzIuOSAyNjMuOTMtMzIuOSAyNjQuNS0zMi4zNSAyNjUuMDgtMzEuOCAyNjUuMDgtMzAuOCAyNjUuMDgtMjkuOCAyNjQuNS0yOS4xOCAyNjMuOTMtMjguNTUgMjYzLjAzLTI4LjU1Wk0yODIuOTctOS4xTDI4Mi45Ny0yMC45IDI3OC43Ny0yMC45IDI3OC43Ny0yMy40IDI4Mi45Ny0yMy40IDI4Mi45Ny0yOS4xNSAyODUuNjItMjkuNjUgMjg1LjYyLTIzLjQgMjk1LjEyLTIzLjQgMjk1LjEyLTIwLjkgMjg1LjYyLTIwLjkgMjg1LjYyLTkuMlEyODUuNjItNS4zIDI4Ni40LTMuNyAyODcuMTctMi4xIDI4OS41Ny0yLjEgMjkxLjk3LTIuMSAyOTQuODctMy4wNUwyOTQuODctMy4wNSAyOTUuNDctMC41NVEyOTIuNTcgMC41IDI5MC4wNyAwLjUgMjg3LjU3IDAuNSAyODYuMTUtMC4xNSAyODQuNzItMC44IDI4NC4wNS0yLjIzIDI4My4zNy0zLjY1IDI4My4xNy01LjE1IDI4Mi45Ny02LjY1IDI4Mi45Ny05LjFMMjgyLjk3LTkuMVoiLz48L3N2Zz48L2c+PC9zdmc+PC9nPjwvc3ZnPjwvZz48L3N2Zz48L2c+PGcgdHJhbnNmb3JtPSJtYXRyaXgoMSwwLDAsMSw4My45NjA1NjI0MTY2NDAzLDApIj48c3ZnIHdpZHRoPSIyMjcuNTk4ODc1MTY2NzE5MzgiIGhlaWdodD0iMjI3LjU5ODg3NTE2NjcxOTM4IiB2aWV3Qm94PSIwIDAgMjI3LjU5ODg3NTE2NjcxOTM4IDIyNy41OTg4NzUxNjY3MTkzOCI+PGc+PHN2Zy8+PC9nPjxnIGlkPSJpY29uLTAiPjxzdmcgd2lkdGg9IjIyNy41OTg4NzUxNjY3MTkzOCIgaGVpZ2h0PSIyMjcuNTk4ODc1MTY2NzE5MzgiIHZpZXdCb3g9IjAgMCAyMjcuNTk4ODc1MTY2NzE5MzggMjI3LjU5ODg3NTE2NjcxOTM4Ij48Zz48cGF0aCBzdHJva2U9InRyYW5zcGFyZW50IiBmaWxsPSIjMDA4MGZmIiBkYXRhLWZpbGwtcGFsZXR0ZS1jb2xvcj0idGVydGlhcnkiIGQ9Ik0wIDExMy43OTljMC02Mi44NSA1MC45NS0xMTMuNzk5IDExMy43OTktMTEzLjc5OSA2Mi44NSAwIDExMy43OTkgNTAuOTUgMTEzLjggMTEzLjc5OSAwIDYyLjg1LTUwLjk1IDExMy43OTktMTEzLjggMTEzLjgtNjIuODUgMC0xMTMuNzk5LTUwLjk1LTExMy43OTktMTEzLjh6TTExMy43OTkgMjIxLjkyMWM1OS43MTQgMCAxMDguMTIxLTQ4LjQwOCAxMDguMTIyLTEwOC4xMjIgMC01OS43MTQtNDguNDA4LTEwOC4xMjEtMTA4LjEyMi0xMDguMTIxLTU5LjcxNCAwLTEwOC4xMjEgNDguNDA4LTEwOC4xMjEgMTA4LjEyMSAwIDU5LjcxNCA0OC40MDggMTA4LjEyMSAxMDguMTIxIDEwOC4xMjJ6Ii8+PC9nPjxnIHRyYW5zZm9ybT0ibWF0cml4KDEsMCwwLDEsNDcuNjk4NTA4MDc0NTA3MzE2LDQ4LjA5NDA1ODg0OTQ5Mzc5KSI+PHN2ZyB3aWR0aD0iMTMyLjIwMTg1OTAxNzcwNDc1IiBoZWlnaHQ9IjEzMS40MTA3NTc0Njc3MzE4IiB2aWV3Qm94PSIwIDAgMTMyLjIwMTg1OTAxNzcwNDc1IDEzMS40MTA3NTc0Njc3MzE4Ij48Zz48c3ZnIHhtbG5zOnhsaW5rPSJodHRwOi8vd3d3LnczLm9yZy8xOTk5L3hsaW5rIiB4bWxucz0iaHR0cDovL3d3dy53My5vcmcvMjAwMC9zdmciIGlkPSJzLTAiIGRhdGEtZmlsbC1wYWxldHRlLWNvbG9yPSJhY2NlbnQiIGNsYXNzPSJpY29uLXMtMCIgd2lkdGg9IjEzMi4yMDE4NTkwMTc3MDQ3NSIgaGVpZ2h0PSIxMzEuNDEwNzU3NDY3NzMxOCIgeG1sOnNwYWNlPSJwcmVzZXJ2ZSIgc3R5bGU9ImVuYWJsZS1iYWNrZ3JvdW5kOm5ldyAwIDAgNTIgNTI7IiB2aWV3Qm94PSIyLjUgMi42NDA2MjUgNDcgNDYuNzE4NzUiIHk9IjAiIHg9IjAiIHZlcnNpb249IjEuMSI+PGcgZGF0YS1maWxsLXBhbGV0dGUtY29sb3I9ImFjY2VudCIgZmlsbD0iIzAwMjNmZiI+PGcgZGF0YS1maWxsLXBhbGV0dGUtY29sb3I9ImFjY2VudCIgZmlsbD0iIzAwMjNmZiI+PHBhdGggZGF0YS1maWxsLXBhbGV0dGUtY29sb3I9ImFjY2VudCIgZmlsbD0iIzAwMjNmZiIgZD0iTTQ3IDE2LjY0MUg1Yy0xLjM3OCAwLTIuNS0xLjEyMS0yLjUtMi41di05YzAtMS4zNzkgMS4xMjItMi41IDIuNS0yLjVoNDJjMS4zNzggMCAyLjUgMS4xMjEgMi41IDIuNXY5QzQ5LjUgMTUuNTIgNDguMzc4IDE2LjY0MSA0NyAxNi42NDF6TTUgMy42NDFjLTAuODI3IDAtMS41IDAuNjczLTEuNSAxLjV2OWMwIDAuODI3IDAuNjczIDEuNSAxLjUgMS41aDQyYzAuODI3IDAgMS41LTAuNjczIDEuNS0xLjV2LTljMC0wLjgyNy0wLjY3My0xLjUtMS41LTEuNUg1eiIvPjwvZz48ZyBkYXRhLWZpbGwtcGFsZXR0ZS1jb2xvcj0iYWNjZW50IiBmaWxsPSIjMDAyM2ZmIj48cGF0aCBkYXRhLWZpbGwtcGFsZXR0ZS1jb2xvcj0iYWNjZW50IiBmaWxsPSIjMDAyM2ZmIiBkPSJNMTAgMTAuMTQxSDhjLTAuMjc2IDAtMC41LTAuMjI0LTAuNS0wLjVzMC4yMjQtMC41IDAuNS0wLjVoMmMwLjI3NiAwIDAuNSAwLjIyNCAwLjUgMC41UzEwLjI3NiAxMC4xNDEgMTAgMTAuMTQxeiIvPjwvZz48ZyBkYXRhLWZpbGwtcGFsZXR0ZS1jb2xvcj0iYWNjZW50IiBmaWxsPSIjMDAyM2ZmIj48cGF0aCBkYXRhLWZpbGwtcGFsZXR0ZS1jb2xvcj0iYWNjZW50IiBmaWxsPSIjMDAyM2ZmIiBkPSJNMTcgMTAuMTQxaC0yYy0wLjI3NiAwLTAuNS0wLjIyNC0wLjUtMC41czAuMjI0LTAuNSAwLjUtMC41aDJjMC4yNzYgMCAwLjUgMC4yMjQgMC41IDAuNVMxNy4yNzYgMTAuMTQxIDE3IDEwLjE0MXoiLz48L2c+PGcgZGF0YS1maWxsLXBhbGV0dGUtY29sb3I9ImFjY2VudCIgZmlsbD0iIzAwMjNmZiI+PHBhdGggZGF0YS1maWxsLXBhbGV0dGUtY29sb3I9ImFjY2VudCIgZmlsbD0iIzAwMjNmZiIgZD0iTTQxLjUgMTIuNjQxYy0xLjY1NCAwLTMtMS4zNDYtMy0zczEuMzQ2LTMgMy0zIDMgMS4zNDYgMyAzUzQzLjE1NCAxMi42NDEgNDEuNSAxMi42NDF6TTQxLjUgNy42NDFjLTEuMTAzIDAtMiAwLjg5Ny0yIDJzMC44OTcgMiAyIDIgMi0wLjg5NyAyLTJTNDIuNjAzIDcuNjQxIDQxLjUgNy42NDF6Ii8+PC9nPjxnIGRhdGEtZmlsbC1wYWxldHRlLWNvbG9yPSJhY2NlbnQiIGZpbGw9IiMwMDIzZmYiPjxwYXRoIGRhdGEtZmlsbC1wYWxldHRlLWNvbG9yPSJhY2NlbnQiIGZpbGw9IiMwMDIzZmYiIGQ9Ik00NyAzNS42NDFINWMtMS4zNzggMC0yLjUtMS4xMjEtMi41LTIuNXYtOWMwLTEuMzc5IDEuMTIyLTIuNSAyLjUtMi41aDQyYzEuMzc4IDAgMi41IDEuMTIxIDIuNSAyLjV2OUM0OS41IDM0LjUyIDQ4LjM3OCAzNS42NDEgNDcgMzUuNjQxek01IDIyLjY0MWMtMC44MjcgMC0xLjUgMC42NzMtMS41IDEuNXY5YzAgMC44MjcgMC42NzMgMS41IDEuNSAxLjVoNDJjMC44MjcgMCAxLjUtMC42NzMgMS41LTEuNXYtOWMwLTAuODI3LTAuNjczLTEuNS0xLjUtMS41SDV6Ii8+PC9nPjxnIGRhdGEtZmlsbC1wYWxldHRlLWNvbG9yPSJhY2NlbnQiIGZpbGw9IiMwMDIzZmYiPjxwYXRoIGRhdGEtZmlsbC1wYWxldHRlLWNvbG9yPSJhY2NlbnQiIGZpbGw9IiMwMDIzZmYiIGQ9Ik0xMCAyOS4xNDFIOGMtMC4yNzYgMC0wLjUtMC4yMjQtMC41LTAuNXMwLjIyNC0wLjUgMC41LTAuNWgyYzAuMjc2IDAgMC41IDAuMjI0IDAuNSAwLjVTMTAuMjc2IDI5LjE0MSAxMCAyOS4xNDF6Ii8+PC9nPjxnIGRhdGEtZmlsbC1wYWxldHRlLWNvbG9yPSJhY2NlbnQiIGZpbGw9IiMwMDIzZmYiPjxwYXRoIGRhdGEtZmlsbC1wYWxldHRlLWNvbG9yPSJhY2NlbnQiIGZpbGw9IiMwMDIzZmYiIGQ9Ik0xNyAyOS4xNDFoLTJjLTAuMjc2IDAtMC41LTAuMjI0LTAuNS0wLjVzMC4yMjQtMC41IDAuNS0wLjVoMmMwLjI3NiAwIDAuNSAwLjIyNCAwLjUgMC41UzE3LjI3NiAyOS4xNDEgMTcgMjkuMTQxeiIvPjwvZz48ZyBkYXRhLWZpbGwtcGFsZXR0ZS1jb2xvcj0iYWNjZW50IiBmaWxsPSIjMDAyM2ZmIj48cGF0aCBkYXRhLWZpbGwtcGFsZXR0ZS1jb2xvcj0iYWNjZW50IiBmaWxsPSIjMDAyM2ZmIiBkPSJNNDEuNSAzMS42NDFjLTEuNjU0IDAtMy0xLjM0Ni0zLTNzMS4zNDYtMyAzLTMgMyAxLjM0NiAzIDNTNDMuMTU0IDMxLjY0MSA0MS41IDMxLjY0MXpNNDEuNSAyNi42NDFjLTEuMTAzIDAtMiAwLjg5Ny0yIDJzMC44OTcgMiAyIDIgMi0wLjg5NyAyLTJTNDIuNjAzIDI2LjY0MSA0MS41IDI2LjY0MXoiLz48L2c+PGcgZGF0YS1maWxsLXBhbGV0dGUtY29sb3I9ImFjY2VudCIgZmlsbD0iIzAwMjNmZiI+PHBhdGggZGF0YS1maWxsLXBhbGV0dGUtY29sb3I9ImFjY2VudCIgZmlsbD0iIzAwMjNmZiIgZD0iTTQxIDIyLjY0MWMtMC4yNzYgMC0wLjUtMC4yMjQtMC41LTAuNXYtNmMwLTAuMjc2IDAuMjI0LTAuNSAwLjUtMC41czAuNSAwLjIyNCAwLjUgMC41djZDNDEuNSAyMi40MTcgNDEuMjc2IDIyLjY0MSA0MSAyMi42NDF6Ii8+PC9nPjxnIGRhdGEtZmlsbC1wYWxldHRlLWNvbG9yPSJhY2NlbnQiIGZpbGw9IiMwMDIzZmYiPjxwYXRoIGRhdGEtZmlsbC1wYWxldHRlLWNvbG9yPSJhY2NlbnQiIGZpbGw9IiMwMDIzZmYiIGQ9Ik0xMSAyMi42NDFjLTAuMjc2IDAtMC41LTAuMjI0LTAuNS0wLjV2LTZjMC0wLjI3NiAwLjIyNC0wLjUgMC41LTAuNXMwLjUgMC4yMjQgMC41IDAuNXY2QzExLjUgMjIuNDE3IDExLjI3NiAyMi42NDEgMTEgMjIuNjQxeiIvPjwvZz48ZyBkYXRhLWZpbGwtcGFsZXR0ZS1jb2xvcj0iYWNjZW50IiBmaWxsPSIjMDAyM2ZmIj48cGF0aCBkYXRhLWZpbGwtcGFsZXR0ZS1jb2xvcj0iYWNjZW50IiBmaWxsPSIjMDAyM2ZmIiBkPSJNMjYgNDMuMzU4Yy0wLjI3NiAwLTAuNS0wLjIyNC0wLjUtMC41VjM1LjE0MWMwLTAuMjc2IDAuMjI0LTAuNSAwLjUtMC41czAuNSAwLjIyNCAwLjUgMC41djcuNzE3QzI2LjUgNDMuMTM1IDI2LjI3NiA0My4zNTggMjYgNDMuMzU4eiIvPjwvZz48ZyBkYXRhLWZpbGwtcGFsZXR0ZS1jb2xvcj0iYWNjZW50IiBmaWxsPSIjMDAyM2ZmIj48cGF0aCBkYXRhLWZpbGwtcGFsZXR0ZS1jb2xvcj0iYWNjZW50IiBmaWxsPSIjMDAyM2ZmIiBkPSJNMjkuMDA0IDQ5LjM1OWgtNmMtMC4yNzYgMC0wLjUtMC4yMjQtMC41LTAuNXYtNmMwLTAuMjc2IDAuMjI0LTAuNSAwLjUtMC41aDZjMC4yNzYgMCAwLjUgMC4yMjQgMC41IDAuNXY2QzI5LjUwNCA0OS4xMzYgMjkuMjgxIDQ5LjM1OSAyOS4wMDQgNDkuMzU5ek0yMy41MDQgNDguMzU5aDV2LTVoLTVWNDguMzU5eiIvPjwvZz48ZyBkYXRhLWZpbGwtcGFsZXR0ZS1jb2xvcj0iYWNjZW50IiBmaWxsPSIjMDAyM2ZmIj48cGF0aCBkYXRhLWZpbGwtcGFsZXR0ZS1jb2xvcj0iYWNjZW50IiBmaWxsPSIjMDAyM2ZmIiBkPSJNNDMuMTE1IDQ2LjM1OUgyOS4wMDRjLTAuMjc2IDAtMC41LTAuMjI0LTAuNS0wLjVzMC4yMjQtMC41IDAuNS0wLjVoMTQuMTExYzAuMjc2IDAgMC41IDAuMjI0IDAuNSAwLjVTNDMuMzkxIDQ2LjM1OSA0My4xMTUgNDYuMzU5eiIvPjwvZz48ZyBkYXRhLWZpbGwtcGFsZXR0ZS1jb2xvcj0iYWNjZW50IiBmaWxsPSIjMDAyM2ZmIj48cGF0aCBkYXRhLWZpbGwtcGFsZXR0ZS1jb2xvcj0iYWNjZW50IiBmaWxsPSIjMDAyM2ZmIiBkPSJNMjMuMDA0IDQ2LjM1OUg4Ljg4NWMtMC4yNzYgMC0wLjUtMC4yMjQtMC41LTAuNXMwLjIyNC0wLjUgMC41LTAuNWgxNC4xMTljMC4yNzYgMCAwLjUgMC4yMjQgMC41IDAuNVMyMy4yODEgNDYuMzU5IDIzLjAwNCA0Ni4zNTl6Ii8+PC9nPjwvZz48L3N2Zz48L2c+PC9zdmc+PC9nPjwvc3ZnPjwvZz48L3N2Zz48L2c+PGcvPjwvc3ZnPjwvZz48ZGVmcy8+PC9zdmc+PHJlY3QgdmlzaWJpbGl0eT0iaGlkZGVuIiBzdHJva2U9Im5vbmUiIGZpbGw9Im5vbmUiIGhlaWdodD0iMjQ3LjIiIHdpZHRoPSIyNjQuODQyNTcwNzI1ODA2NjQiLz48L2c+PC9zdmc+PC9nPjwvc3ZnPg==;imageBackground=none;" vertex="1" parent="1">
          <mxGeometry x="223.26999999999998" y="305" width="96.57" height="90" as="geometry" />
        </mxCell>
        <mxCell id="sGHToENWSSwmSYuh3yBc-13" style="edgeStyle=orthogonalEdgeStyle;rounded=0;orthogonalLoop=1;jettySize=auto;html=1;curved=1;exitX=1;exitY=0.5;exitDx=0;exitDy=0;strokeWidth=1;" edge="1" parent="1" source="sGHToENWSSwmSYuh3yBc-7" target="sGHToENWSSwmSYuh3yBc-8">
          <mxGeometry relative="1" as="geometry" />
        </mxCell>
        <mxCell id="sGHToENWSSwmSYuh3yBc-7" value="Creation" style="rounded=1;whiteSpace=wrap;html=1;strokeWidth=1;fillColor=#d5e8d4;strokeColor=#82b366;" vertex="1" parent="1">
          <mxGeometry x="500" y="305" width="100" height="40" as="geometry" />
        </mxCell>
        <mxCell id="sGHToENWSSwmSYuh3yBc-8" value="Monitoring" style="rounded=1;whiteSpace=wrap;html=1;strokeWidth=1;fillColor=#dae8fc;strokeColor=#6c8ebf;" vertex="1" parent="1">
          <mxGeometry x="600" y="365" width="100" height="40" as="geometry" />
        </mxCell>
        <mxCell id="sGHToENWSSwmSYuh3yBc-20" style="edgeStyle=orthogonalEdgeStyle;rounded=0;orthogonalLoop=1;jettySize=auto;html=1;entryX=1;entryY=0.5;entryDx=0;entryDy=0;curved=1;strokeWidth=1;" edge="1" parent="1" source="sGHToENWSSwmSYuh3yBc-9" target="sGHToENWSSwmSYuh3yBc-10">
          <mxGeometry relative="1" as="geometry" />
        </mxCell>
        <mxCell id="sGHToENWSSwmSYuh3yBc-23" style="edgeStyle=orthogonalEdgeStyle;rounded=0;orthogonalLoop=1;jettySize=auto;html=1;entryX=0.25;entryY=1;entryDx=0;entryDy=0;exitX=0.25;exitY=0;exitDx=0;exitDy=0;strokeWidth=1;" edge="1" parent="1" source="sGHToENWSSwmSYuh3yBc-9" target="sGHToENWSSwmSYuh3yBc-8">
          <mxGeometry relative="1" as="geometry" />
        </mxCell>
        <mxCell id="sGHToENWSSwmSYuh3yBc-25" style="edgeStyle=orthogonalEdgeStyle;rounded=0;orthogonalLoop=1;jettySize=auto;html=1;entryX=0.75;entryY=1;entryDx=0;entryDy=0;exitX=0.75;exitY=0;exitDx=0;exitDy=0;endArrow=none;endFill=0;startArrow=classic;startFill=1;strokeWidth=1;" edge="1" parent="1" source="sGHToENWSSwmSYuh3yBc-9" target="sGHToENWSSwmSYuh3yBc-8">
          <mxGeometry relative="1" as="geometry" />
        </mxCell>
        <mxCell id="sGHToENWSSwmSYuh3yBc-9" value="Operation" style="rounded=1;whiteSpace=wrap;html=1;strokeWidth=1;fillColor=#f8cecc;strokeColor=#b85450;" vertex="1" parent="1">
          <mxGeometry x="600" y="445" width="100" height="40" as="geometry" />
        </mxCell>
        <mxCell id="sGHToENWSSwmSYuh3yBc-16" style="edgeStyle=orthogonalEdgeStyle;rounded=0;orthogonalLoop=1;jettySize=auto;html=1;entryX=0.5;entryY=1;entryDx=0;entryDy=0;curved=1;exitX=0;exitY=0.5;exitDx=0;exitDy=0;strokeWidth=1;" edge="1" parent="1" source="sGHToENWSSwmSYuh3yBc-10" target="sGHToENWSSwmSYuh3yBc-11">
          <mxGeometry relative="1" as="geometry" />
        </mxCell>
        <mxCell id="sGHToENWSSwmSYuh3yBc-10" value="Evaluation" style="rounded=1;whiteSpace=wrap;html=1;strokeWidth=1;fillColor=#f5f5f5;strokeColor=#666666;fontColor=#000000;" vertex="1" parent="1">
          <mxGeometry x="500" y="545" width="100" height="40" as="geometry" />
        </mxCell>
        <mxCell id="sGHToENWSSwmSYuh3yBc-17" style="edgeStyle=orthogonalEdgeStyle;rounded=0;orthogonalLoop=1;jettySize=auto;html=1;strokeWidth=1;" edge="1" parent="1" source="sGHToENWSSwmSYuh3yBc-11" target="sGHToENWSSwmSYuh3yBc-12">
          <mxGeometry relative="1" as="geometry" />
        </mxCell>
        <mxCell id="sGHToENWSSwmSYuh3yBc-11" value="Documentation" style="rounded=1;whiteSpace=wrap;html=1;strokeWidth=1;fillColor=#f5f5f5;strokeColor=#666666;fontColor=#000000;" vertex="1" parent="1">
          <mxGeometry x="400" y="465" width="100" height="40" as="geometry" />
        </mxCell>
        <mxCell id="sGHToENWSSwmSYuh3yBc-21" style="edgeStyle=orthogonalEdgeStyle;rounded=0;orthogonalLoop=1;jettySize=auto;html=1;entryX=0;entryY=0.5;entryDx=0;entryDy=0;curved=1;strokeWidth=1;" edge="1" parent="1" source="sGHToENWSSwmSYuh3yBc-12" target="sGHToENWSSwmSYuh3yBc-7">
          <mxGeometry relative="1" as="geometry" />
        </mxCell>
        <mxCell id="sGHToENWSSwmSYuh3yBc-12" value="Deletion" style="rounded=1;whiteSpace=wrap;html=1;strokeWidth=1;fillColor=#d5e8d4;strokeColor=#82b366;" vertex="1" parent="1">
          <mxGeometry x="400" y="365" width="100" height="40" as="geometry" />
        </mxCell>
        <mxCell id="sGHToENWSSwmSYuh3yBc-31" value="" style="endArrow=none;dashed=1;html=1;dashPattern=1 3;strokeWidth=2;rounded=0;" edge="1" parent="1">
          <mxGeometry width="50" height="50" relative="1" as="geometry">
            <mxPoint x="380" y="415" as="sourcePoint" />
            <mxPoint x="719" y="540" as="targetPoint" />
          </mxGeometry>
        </mxCell>
        <mxCell id="sGHToENWSSwmSYuh3yBc-32" value="Infrastructure&lt;br&gt;Workloads" style="text;html=1;align=center;verticalAlign=middle;whiteSpace=wrap;rounded=0;fontColor=#007FFF;fontStyle=3" vertex="1" parent="1">
          <mxGeometry x="520" y="395" width="60" height="30" as="geometry" />
        </mxCell>
        <mxCell id="sGHToENWSSwmSYuh3yBc-33" value="Algorithms&lt;br&gt;Strategies&lt;br&gt;Policies" style="text;html=1;align=center;verticalAlign=middle;whiteSpace=wrap;rounded=0;fontColor=#007FFF;fontStyle=3" vertex="1" parent="1">
          <mxGeometry x="520" y="495" width="60" height="30" as="geometry" />
        </mxCell>
      </root>
    </mxGraphModel>
  </diagram>
</mxfile>
